<mxfile host="app.diagrams.net" modified="2023-05-01T23:02:39.618Z" agent="Mozilla/5.0 (Macintosh; Intel Mac OS X 10_15_7) AppleWebKit/537.36 (KHTML, like Gecko) Chrome/111.0.0.0 Safari/537.36" etag="_qN_-g_rDIyTgaite9kE" version="21.2.3" type="github" pages="2">
  <diagram name="Page-1" id="aFJhFqFk9B--9QyLlLoq">
    <mxGraphModel dx="4426" dy="2860" grid="1" gridSize="10" guides="1" tooltips="1" connect="1" arrows="1" fold="1" page="1" pageScale="1" pageWidth="850" pageHeight="1100" math="0" shadow="0">
      <root>
        <mxCell id="0" />
        <mxCell id="1" parent="0" />
        <mxCell id="rpRpTpSi7NvEV7vdiJDh-1" value="&lt;font style=&quot;font-size: 20px;&quot; color=&quot;#ffffff&quot;&gt;Semester 4&lt;br&gt;69%&lt;br&gt;71,409&lt;br&gt;&lt;/font&gt;" style="rounded=0;whiteSpace=wrap;html=1;labelBackgroundColor=none;fillStyle=solid;strokeColor=none;fillColor=#9FDB7D;gradientColor=none;" parent="1" vertex="1">
          <mxGeometry x="-1160" y="-893" width="149" height="126" as="geometry" />
        </mxCell>
        <mxCell id="rpRpTpSi7NvEV7vdiJDh-2" value="" style="verticalLabelPosition=bottom;verticalAlign=top;html=1;shape=mxgraph.basic.half_circle;flipV=1;fillColor=#8DC26F;strokeColor=#8DC26F;" parent="1" vertex="1">
          <mxGeometry x="-1201" y="-767" width="82" height="40" as="geometry" />
        </mxCell>
        <mxCell id="rpRpTpSi7NvEV7vdiJDh-3" value="" style="verticalLabelPosition=bottom;verticalAlign=top;html=1;shape=mxgraph.basic.half_circle;flipV=1;strokeColor=#7CAB62;fillColor=#7CAB62;" parent="1" vertex="1">
          <mxGeometry x="-1371" y="-726" width="122" height="63" as="geometry" />
        </mxCell>
        <mxCell id="rpRpTpSi7NvEV7vdiJDh-4" value="&lt;font color=&quot;#000000&quot; style=&quot;font-size: 16px;&quot;&gt;1%&lt;br style=&quot;font-size: 16px;&quot;&gt;2,721&lt;br style=&quot;font-size: 16px;&quot;&gt;&lt;/font&gt;" style="rounded=0;whiteSpace=wrap;html=1;labelBackgroundColor=none;fillStyle=solid;strokeColor=none;fontSize=16;fontColor=#FFFFFF;fillColor=none;gradientColor=none;container=0;" parent="1" vertex="1">
          <mxGeometry x="-1524.03" y="-972.99" width="70" height="45.99" as="geometry" />
        </mxCell>
        <mxCell id="rpRpTpSi7NvEV7vdiJDh-5" value="" style="verticalLabelPosition=bottom;verticalAlign=top;html=1;shape=mxgraph.basic.half_circle;flipV=1;rotation=-180;fillColor=#7CAB62;strokeColor=#7CAB62;" parent="1" vertex="1">
          <mxGeometry x="-1325" y="-924" width="30" height="14" as="geometry" />
        </mxCell>
        <mxCell id="rpRpTpSi7NvEV7vdiJDh-6" value="" style="group" parent="1" vertex="1" connectable="0">
          <mxGeometry x="-1040" y="-790" width="50" height="70" as="geometry" />
        </mxCell>
        <mxCell id="rpRpTpSi7NvEV7vdiJDh-7" value="" style="html=1;shadow=0;dashed=0;align=center;verticalAlign=middle;shape=mxgraph.arrows2.arrow;dy=0.53;dx=21.54;direction=south;notch=0;fillColor=#9FDB7D;strokeColor=none;" parent="rpRpTpSi7NvEV7vdiJDh-6" vertex="1">
          <mxGeometry x="18.8" y="21" width="37.75" height="39.65" as="geometry" />
        </mxCell>
        <mxCell id="rpRpTpSi7NvEV7vdiJDh-8" value="" style="verticalLabelPosition=bottom;verticalAlign=top;html=1;shape=mxgraph.basic.half_circle;flipV=1;fillColor=#9FDB7D;strokeColor=none;" parent="rpRpTpSi7NvEV7vdiJDh-6" vertex="1">
          <mxGeometry x="1.501793283338766" y="0.6666666666666669" width="45.05379850016298" height="21.33333333333334" as="geometry" />
        </mxCell>
        <mxCell id="rpRpTpSi7NvEV7vdiJDh-33" value="&lt;font color=&quot;#000000&quot; style=&quot;font-size: 16px;&quot;&gt;16%&lt;br style=&quot;font-size: 16px;&quot;&gt;11,496&lt;br style=&quot;font-size: 16px;&quot;&gt;&lt;/font&gt;" style="rounded=0;whiteSpace=wrap;html=1;labelBackgroundColor=none;fillStyle=solid;strokeColor=none;fontSize=16;fontColor=#FFFFFF;fillColor=none;gradientColor=none;" parent="rpRpTpSi7NvEV7vdiJDh-6" vertex="1">
          <mxGeometry x="-40" y="22" width="70" height="48" as="geometry" />
        </mxCell>
        <mxCell id="rpRpTpSi7NvEV7vdiJDh-9" value="" style="html=1;shadow=0;dashed=0;align=center;verticalAlign=middle;shape=mxgraph.arrows2.arrow;dy=0.49;dx=13.17;direction=south;notch=0;rotation=-180;fillColor=#7CAB62;strokeColor=#7CAB62;" parent="1" vertex="1">
          <mxGeometry x="-1317" y="-953" width="29.2" height="29" as="geometry" />
        </mxCell>
        <mxCell id="rpRpTpSi7NvEV7vdiJDh-10" value="" style="html=1;shadow=0;dashed=0;align=center;verticalAlign=middle;shape=mxgraph.arrows2.arrow;dy=0.51;dx=17.01;direction=south;notch=0;rotation=-180;fillColor=#8DC26F;strokeColor=#8DC26F;" parent="1" vertex="1">
          <mxGeometry x="-1169" y="-942" width="35" height="32" as="geometry" />
        </mxCell>
        <mxCell id="rpRpTpSi7NvEV7vdiJDh-11" value="" style="verticalLabelPosition=bottom;verticalAlign=top;html=1;shape=mxgraph.basic.half_circle;flipV=1;rotation=-180;fillColor=#8DC26F;strokeColor=#8DC26F;" parent="1" vertex="1">
          <mxGeometry x="-1177" y="-909.51" width="34" height="16.5" as="geometry" />
        </mxCell>
        <mxCell id="rpRpTpSi7NvEV7vdiJDh-12" value="&lt;font style=&quot;font-size: 20px;&quot; color=&quot;#ffffff&quot;&gt;Semester 1&lt;br&gt;100%&lt;br&gt;226,769&lt;br&gt;&lt;/font&gt;" style="rounded=0;whiteSpace=wrap;html=1;labelBackgroundColor=none;fillStyle=solid;strokeColor=none;fillColor=#648A4F;gradientColor=none;" parent="1" vertex="1">
          <mxGeometry x="-1610" y="-930" width="150" height="400" as="geometry" />
        </mxCell>
        <mxCell id="rpRpTpSi7NvEV7vdiJDh-13" value="" style="shape=singleArrow;direction=south;whiteSpace=wrap;html=1;arrowWidth=0.5652358691032497;arrowSize=0.3602209944751394;rotation=-180;fillColor=#648A4F;strokeColor=#648A4F;" parent="1" vertex="1">
          <mxGeometry x="-1461.5" y="-941" width="7.65" height="11" as="geometry" />
        </mxCell>
        <mxCell id="rpRpTpSi7NvEV7vdiJDh-14" value="&lt;font style=&quot;font-size: 20px;&quot; color=&quot;#ffffff&quot;&gt;Semester 2&lt;br&gt;66%&lt;br&gt;149,322&lt;br&gt;&lt;/font&gt;" style="rounded=0;whiteSpace=wrap;html=1;labelBackgroundColor=none;fillStyle=solid;strokeColor=none;fillColor=#7CAB62;gradientColor=none;" parent="1" vertex="1">
          <mxGeometry x="-1460" y="-925" width="150" height="263" as="geometry" />
        </mxCell>
        <mxCell id="rpRpTpSi7NvEV7vdiJDh-15" value="" style="html=1;shadow=0;dashed=0;align=center;verticalAlign=middle;shape=mxgraph.arrows2.arrow;dy=0.48;dx=59.93;direction=south;notch=0;strokeColor=#7CAB62;fillColor=#7CAB62;" parent="1" vertex="1">
          <mxGeometry x="-1340" y="-664" width="120" height="120" as="geometry" />
        </mxCell>
        <mxCell id="rpRpTpSi7NvEV7vdiJDh-16" value="&lt;font style=&quot;font-size: 20px;&quot; color=&quot;#ffffff&quot;&gt;Semester 5&lt;br&gt;68%&lt;br&gt;48,821&lt;br&gt;&lt;/font&gt;" style="rounded=0;whiteSpace=wrap;html=1;labelBackgroundColor=none;fillStyle=solid;strokeColor=none;fillColor=#B9E0A5;gradientColor=none;" parent="1" vertex="1">
          <mxGeometry x="-1011" y="-874" width="150" height="86" as="geometry" />
        </mxCell>
        <mxCell id="rpRpTpSi7NvEV7vdiJDh-17" value="&lt;font color=&quot;#000000&quot;&gt;Does not enroll following semester&lt;/font&gt;" style="rounded=0;whiteSpace=wrap;html=1;labelBackgroundColor=none;fillStyle=solid;strokeColor=none;fontSize=20;fontColor=#FFFFFF;fillColor=none;gradientColor=none;" parent="1" vertex="1">
          <mxGeometry x="-1295" y="-387" width="233.74" height="60" as="geometry" />
        </mxCell>
        <mxCell id="rpRpTpSi7NvEV7vdiJDh-18" value="&lt;font color=&quot;#000000&quot;&gt;Completes a degree or upward transfers&lt;/font&gt;" style="rounded=0;whiteSpace=wrap;html=1;labelBackgroundColor=none;fillStyle=solid;strokeColor=none;fontSize=20;fontColor=#FFFFFF;fillColor=none;gradientColor=none;" parent="1" vertex="1">
          <mxGeometry x="-1292.5" y="-1050" width="233.74" height="60" as="geometry" />
        </mxCell>
        <mxCell id="rpRpTpSi7NvEV7vdiJDh-19" value="&lt;font color=&quot;#000000&quot; style=&quot;font-size: 16px;&quot;&gt;6%&lt;br style=&quot;font-size: 16px;&quot;&gt;8,418&lt;br style=&quot;font-size: 16px;&quot;&gt;&lt;/font&gt;" style="rounded=0;whiteSpace=wrap;html=1;labelBackgroundColor=none;fillStyle=solid;strokeColor=none;fontSize=16;fontColor=#FFFFFF;fillColor=none;gradientColor=none;" parent="1" vertex="1">
          <mxGeometry x="-1380" y="-967" width="70" height="44" as="geometry" />
        </mxCell>
        <mxCell id="rpRpTpSi7NvEV7vdiJDh-20" value="&lt;font color=&quot;#000000&quot; style=&quot;font-size: 16px;&quot;&gt;9%&lt;br style=&quot;font-size: 16px;&quot;&gt;9,728&lt;br style=&quot;font-size: 16px;&quot;&gt;&lt;/font&gt;" style="rounded=0;whiteSpace=wrap;html=1;labelBackgroundColor=none;fillStyle=solid;strokeColor=none;fontSize=16;fontColor=#FFFFFF;fillColor=none;gradientColor=none;" parent="1" vertex="1">
          <mxGeometry x="-1230" y="-953" width="70" height="45.75" as="geometry" />
        </mxCell>
        <mxCell id="rpRpTpSi7NvEV7vdiJDh-21" value="&lt;font color=&quot;#000000&quot;&gt;Fall 2015&lt;/font&gt;" style="rounded=0;whiteSpace=wrap;html=1;labelBackgroundColor=none;fillStyle=solid;strokeColor=none;fontSize=20;fontColor=#FFFFFF;fillColor=none;gradientColor=none;" parent="1" vertex="1">
          <mxGeometry x="-1700" y="-1070" width="130" height="60" as="geometry" />
        </mxCell>
        <mxCell id="rpRpTpSi7NvEV7vdiJDh-22" value="" style="verticalLabelPosition=bottom;verticalAlign=top;html=1;shape=mxgraph.basic.half_circle;flipV=1;fillColor=#648A4F;strokeColor=#648A4F;" parent="1" vertex="1">
          <mxGeometry x="-1581" y="-663" width="241.3" height="132" as="geometry" />
        </mxCell>
        <mxCell id="rpRpTpSi7NvEV7vdiJDh-23" value="" style="html=1;shadow=0;dashed=0;align=center;verticalAlign=middle;shape=mxgraph.arrows2.arrow;dy=0.44;dx=115.12;direction=south;notch=0;fillColor=#648A4F;strokeColor=#648A4F;" parent="1" vertex="1">
          <mxGeometry x="-1507" y="-532" width="214.5" height="206" as="geometry" />
        </mxCell>
        <mxCell id="rpRpTpSi7NvEV7vdiJDh-24" value="&lt;font color=&quot;#000000&quot; style=&quot;font-size: 16px;&quot;&gt;33%&lt;br style=&quot;font-size: 16px;&quot;&gt;74,726&lt;br style=&quot;font-size: 16px;&quot;&gt;&lt;/font&gt;" style="rounded=0;whiteSpace=wrap;html=1;labelBackgroundColor=none;fillStyle=solid;strokeColor=none;fontSize=16;fontColor=#FFFFFF;fillColor=none;gradientColor=none;" parent="1" vertex="1">
          <mxGeometry x="-1525.5" y="-538" width="70" height="60" as="geometry" />
        </mxCell>
        <mxCell id="rpRpTpSi7NvEV7vdiJDh-25" value="&lt;font color=&quot;#000000&quot; style=&quot;font-size: 16px;&quot;&gt;25%&lt;br style=&quot;font-size: 16px;&quot;&gt;36,630&lt;br style=&quot;font-size: 16px;&quot;&gt;&lt;/font&gt;" style="rounded=0;whiteSpace=wrap;html=1;labelBackgroundColor=none;fillStyle=solid;strokeColor=none;fontSize=16;fontColor=#FFFFFF;fillColor=none;gradientColor=none;" parent="1" vertex="1">
          <mxGeometry x="-1372" y="-670" width="60" height="57" as="geometry" />
        </mxCell>
        <mxCell id="rpRpTpSi7NvEV7vdiJDh-26" value="" style="html=1;shadow=0;dashed=0;align=center;verticalAlign=middle;shape=mxgraph.arrows2.arrow;dy=0.49;dx=43.54;direction=south;notch=0;fillColor=#8DC26F;strokeColor=#8DC26F;" parent="1" vertex="1">
          <mxGeometry x="-1181" y="-728" width="82" height="86" as="geometry" />
        </mxCell>
        <mxCell id="rpRpTpSi7NvEV7vdiJDh-27" value="" style="verticalLabelPosition=bottom;verticalAlign=top;html=1;shape=mxgraph.basic.half_circle;flipV=1;rotation=-180;fillColor=#648A4F;strokeColor=#648A4F;" parent="1" vertex="1">
          <mxGeometry x="-1464.5" y="-929.5" width="9" height="4.3" as="geometry" />
        </mxCell>
        <mxCell id="rpRpTpSi7NvEV7vdiJDh-28" value="&lt;font color=&quot;#000000&quot; style=&quot;font-size: 16px;&quot;&gt;16%&lt;br style=&quot;font-size: 16px;&quot;&gt;11,092&lt;br style=&quot;font-size: 16px;&quot;&gt;&lt;/font&gt;" style="rounded=0;whiteSpace=wrap;html=1;labelBackgroundColor=none;fillStyle=solid;strokeColor=none;fontSize=16;fontColor=#FFFFFF;fillColor=none;gradientColor=none;" parent="1" vertex="1">
          <mxGeometry x="-1087.8" y="-939.5" width="70" height="51.5" as="geometry" />
        </mxCell>
        <mxCell id="rpRpTpSi7NvEV7vdiJDh-29" value="&lt;font style=&quot;font-size: 20px;&quot; color=&quot;#ffffff&quot;&gt;Semester 3&lt;br&gt;70%&lt;br&gt;104,274&lt;br&gt;&lt;/font&gt;" style="rounded=0;whiteSpace=wrap;html=1;labelBackgroundColor=none;fillStyle=solid;strokeColor=none;fillColor=#8DC26F;gradientColor=none;" parent="1" vertex="1">
          <mxGeometry x="-1310" y="-910" width="150" height="184" as="geometry" />
        </mxCell>
        <mxCell id="rpRpTpSi7NvEV7vdiJDh-30" value="&lt;font color=&quot;#000000&quot; style=&quot;font-size: 16px;&quot;&gt;22%&lt;br style=&quot;font-size: 16px;&quot;&gt;23,137&lt;br style=&quot;font-size: 16px;&quot;&gt;&lt;/font&gt;" style="rounded=0;whiteSpace=wrap;html=1;labelBackgroundColor=none;fillStyle=solid;strokeColor=none;fontSize=16;fontColor=#FFFFFF;fillColor=none;gradientColor=none;" parent="1" vertex="1">
          <mxGeometry x="-1235.6" y="-726" width="60" height="45" as="geometry" />
        </mxCell>
        <mxCell id="rpRpTpSi7NvEV7vdiJDh-31" value="" style="verticalLabelPosition=bottom;verticalAlign=top;html=1;shape=mxgraph.basic.half_circle;flipV=1;rotation=-180;fillColor=#a0db7d;strokeColor=#a0db7d;" parent="1" vertex="1">
          <mxGeometry x="-1028" y="-892" width="35" height="18" as="geometry" />
        </mxCell>
        <mxCell id="rpRpTpSi7NvEV7vdiJDh-32" value="" style="html=1;shadow=0;dashed=0;align=center;verticalAlign=middle;shape=mxgraph.arrows2.arrow;dy=0.45;dx=14.29;direction=south;notch=0;rotation=-180;fillColor=#a0db7d;strokeColor=#a0db7d;" parent="1" vertex="1">
          <mxGeometry x="-1017.8" y="-931" width="32" height="39" as="geometry" />
        </mxCell>
        <mxCell id="AX7mnTqwUvaXNK33T4vt-1" value="&lt;font style=&quot;font-size: 20px;&quot; color=&quot;#ffffff&quot;&gt;Semester 4&lt;br&gt;69%&lt;br&gt;69,717&lt;br&gt;&lt;/font&gt;" style="rounded=0;whiteSpace=wrap;html=1;labelBackgroundColor=none;fillStyle=solid;strokeColor=none;fillColor=#9FDB7D;gradientColor=none;" parent="1" vertex="1">
          <mxGeometry x="-312" y="-894" width="149" height="132" as="geometry" />
        </mxCell>
        <mxCell id="AX7mnTqwUvaXNK33T4vt-4" value="&lt;font color=&quot;#000000&quot; style=&quot;font-size: 16px;&quot;&gt;1%&lt;br style=&quot;font-size: 16px;&quot;&gt;2,415&lt;br style=&quot;font-size: 16px;&quot;&gt;&lt;/font&gt;" style="rounded=0;whiteSpace=wrap;html=1;labelBackgroundColor=none;fillStyle=solid;strokeColor=none;fontSize=16;fontColor=#FFFFFF;fillColor=none;gradientColor=none;container=0;" parent="1" vertex="1">
          <mxGeometry x="-684.2" y="-972.99" width="70" height="45.99" as="geometry" />
        </mxCell>
        <mxCell id="AX7mnTqwUvaXNK33T4vt-12" value="&lt;font style=&quot;font-size: 20px;&quot; color=&quot;#ffffff&quot;&gt;Semester 1&lt;br&gt;100%&lt;br&gt;212,170&lt;br&gt;&lt;/font&gt;" style="rounded=0;whiteSpace=wrap;html=1;labelBackgroundColor=none;fillStyle=solid;strokeColor=none;fillColor=#648A4F;gradientColor=none;" parent="1" vertex="1">
          <mxGeometry x="-760" y="-930" width="150" height="400" as="geometry" />
        </mxCell>
        <mxCell id="AX7mnTqwUvaXNK33T4vt-13" value="" style="shape=singleArrow;direction=south;whiteSpace=wrap;html=1;arrowWidth=0.5652358691032497;arrowSize=0.3602209944751394;rotation=-180;fillColor=#648A4F;strokeColor=#648A4F;" parent="1" vertex="1">
          <mxGeometry x="-611.27" y="-937" width="5.2" height="7" as="geometry" />
        </mxCell>
        <mxCell id="AX7mnTqwUvaXNK33T4vt-14" value="&lt;font style=&quot;font-size: 20px;&quot; color=&quot;#ffffff&quot;&gt;Semester 2&lt;br&gt;68%&lt;br&gt;143,836&lt;br&gt;&lt;/font&gt;" style="rounded=0;whiteSpace=wrap;html=1;labelBackgroundColor=none;fillStyle=solid;strokeColor=none;fillColor=#7CAB62;gradientColor=none;" parent="1" vertex="1">
          <mxGeometry x="-610" y="-926" width="149" height="271" as="geometry" />
        </mxCell>
        <mxCell id="AX7mnTqwUvaXNK33T4vt-16" value="&lt;font style=&quot;font-size: 20px;&quot; color=&quot;#ffffff&quot;&gt;Semester 5&lt;br&gt;68%&lt;br&gt;47,134&lt;br&gt;&lt;/font&gt;" style="rounded=0;whiteSpace=wrap;html=1;labelBackgroundColor=none;fillStyle=solid;strokeColor=none;fillColor=#B9E0A5;gradientColor=none;" parent="1" vertex="1">
          <mxGeometry x="-163" y="-872" width="150" height="89" as="geometry" />
        </mxCell>
        <mxCell id="AX7mnTqwUvaXNK33T4vt-17" value="&lt;font color=&quot;#000000&quot;&gt;Does not enroll following semester&lt;/font&gt;" style="rounded=0;whiteSpace=wrap;html=1;labelBackgroundColor=none;fillStyle=solid;strokeColor=none;fontSize=20;fontColor=#FFFFFF;fillColor=none;gradientColor=none;" parent="1" vertex="1">
          <mxGeometry x="-448" y="-387" width="233.74" height="60" as="geometry" />
        </mxCell>
        <mxCell id="AX7mnTqwUvaXNK33T4vt-18" value="&lt;font color=&quot;#000000&quot;&gt;Completes a degree or upward transfers&lt;/font&gt;" style="rounded=0;whiteSpace=wrap;html=1;labelBackgroundColor=none;fillStyle=solid;strokeColor=none;fontSize=20;fontColor=#FFFFFF;fillColor=none;gradientColor=none;" parent="1" vertex="1">
          <mxGeometry x="-448" y="-1050" width="233.74" height="60" as="geometry" />
        </mxCell>
        <mxCell id="AX7mnTqwUvaXNK33T4vt-19" value="&lt;font color=&quot;#000000&quot; style=&quot;font-size: 16px;&quot;&gt;6%&lt;br style=&quot;font-size: 16px;&quot;&gt;7,924&lt;br style=&quot;font-size: 16px;&quot;&gt;&lt;/font&gt;" style="rounded=0;whiteSpace=wrap;html=1;labelBackgroundColor=none;fillStyle=solid;strokeColor=none;fontSize=16;fontColor=#FFFFFF;fillColor=none;gradientColor=none;" parent="1" vertex="1">
          <mxGeometry x="-539.2" y="-970" width="70" height="44" as="geometry" />
        </mxCell>
        <mxCell id="AX7mnTqwUvaXNK33T4vt-20" value="&lt;font color=&quot;#000000&quot; style=&quot;font-size: 16px;&quot;&gt;9%&lt;br style=&quot;font-size: 16px;&quot;&gt;9,005&lt;br style=&quot;font-size: 16px;&quot;&gt;&lt;/font&gt;" style="rounded=0;whiteSpace=wrap;html=1;labelBackgroundColor=none;fillStyle=solid;strokeColor=none;fontSize=16;fontColor=#FFFFFF;fillColor=none;gradientColor=none;" parent="1" vertex="1">
          <mxGeometry x="-386.5999999999999" y="-953" width="70" height="45.75" as="geometry" />
        </mxCell>
        <mxCell id="AX7mnTqwUvaXNK33T4vt-21" value="&lt;font color=&quot;#000000&quot;&gt;Fall 2016&lt;/font&gt;" style="rounded=0;whiteSpace=wrap;html=1;labelBackgroundColor=none;fillStyle=solid;strokeColor=none;fontSize=20;fontColor=#FFFFFF;fillColor=none;gradientColor=none;" parent="1" vertex="1">
          <mxGeometry x="-850" y="-1070" width="130" height="60" as="geometry" />
        </mxCell>
        <mxCell id="AX7mnTqwUvaXNK33T4vt-24" value="&lt;font color=&quot;#000000&quot; style=&quot;font-size: 16px;&quot;&gt;31%&lt;br style=&quot;font-size: 16px;&quot;&gt;65,919&lt;br style=&quot;font-size: 16px;&quot;&gt;&lt;/font&gt;" style="rounded=0;whiteSpace=wrap;html=1;labelBackgroundColor=none;fillStyle=solid;strokeColor=none;fontSize=16;fontColor=#FFFFFF;fillColor=none;gradientColor=none;" parent="1" vertex="1">
          <mxGeometry x="-679.03" y="-532" width="70" height="50" as="geometry" />
        </mxCell>
        <mxCell id="AX7mnTqwUvaXNK33T4vt-25" value="&lt;font color=&quot;#000000&quot; style=&quot;font-size: 16px;&quot;&gt;25%&lt;br style=&quot;font-size: 16px;&quot;&gt;35,285&lt;br style=&quot;font-size: 16px;&quot;&gt;&lt;/font&gt;" style="rounded=0;whiteSpace=wrap;html=1;labelBackgroundColor=none;fillStyle=solid;strokeColor=none;fontSize=16;fontColor=#FFFFFF;fillColor=none;gradientColor=none;" parent="1" vertex="1">
          <mxGeometry x="-522.6" y="-658" width="60" height="51" as="geometry" />
        </mxCell>
        <mxCell id="AX7mnTqwUvaXNK33T4vt-27" value="" style="verticalLabelPosition=bottom;verticalAlign=top;html=1;shape=mxgraph.basic.half_circle;flipV=1;rotation=-180;fillColor=#648A4F;strokeColor=#648A4F;" parent="1" vertex="1">
          <mxGeometry x="-614.2" y="-929.5" width="7" height="3.1" as="geometry" />
        </mxCell>
        <mxCell id="AX7mnTqwUvaXNK33T4vt-28" value="&lt;font color=&quot;#000000&quot; style=&quot;font-size: 16px;&quot;&gt;16%&lt;br style=&quot;font-size: 16px;&quot;&gt;11,270&lt;br style=&quot;font-size: 16px;&quot;&gt;&lt;/font&gt;" style="rounded=0;whiteSpace=wrap;html=1;labelBackgroundColor=none;fillStyle=solid;strokeColor=none;fontSize=16;fontColor=#FFFFFF;fillColor=none;gradientColor=none;" parent="1" vertex="1">
          <mxGeometry x="-237.79999999999995" y="-940" width="70" height="51.5" as="geometry" />
        </mxCell>
        <mxCell id="AX7mnTqwUvaXNK33T4vt-29" value="&lt;font style=&quot;font-size: 20px;&quot; color=&quot;#ffffff&quot;&gt;Semester 3&lt;br&gt;70%&lt;br&gt;100,627&lt;br&gt;&lt;/font&gt;" style="rounded=0;whiteSpace=wrap;html=1;labelBackgroundColor=none;fillStyle=solid;strokeColor=none;fillColor=#8DC26F;gradientColor=none;" parent="1" vertex="1">
          <mxGeometry x="-461" y="-911" width="149" height="190" as="geometry" />
        </mxCell>
        <mxCell id="AX7mnTqwUvaXNK33T4vt-30" value="&lt;font color=&quot;#000000&quot; style=&quot;font-size: 16px;&quot;&gt;22%&lt;br style=&quot;font-size: 16px;&quot;&gt;21,905&lt;br style=&quot;font-size: 16px;&quot;&gt;&lt;/font&gt;" style="rounded=0;whiteSpace=wrap;html=1;labelBackgroundColor=none;fillStyle=solid;strokeColor=none;fontSize=16;fontColor=#FFFFFF;fillColor=none;gradientColor=none;" parent="1" vertex="1">
          <mxGeometry x="-389" y="-721.5" width="60" height="45" as="geometry" />
        </mxCell>
        <mxCell id="AX7mnTqwUvaXNK33T4vt-33" value="&lt;font color=&quot;#000000&quot; style=&quot;font-size: 16px;&quot;&gt;16%&lt;br style=&quot;font-size: 16px;&quot;&gt;11,313&lt;br style=&quot;font-size: 16px;&quot;&gt;&lt;/font&gt;" style="rounded=0;whiteSpace=wrap;html=1;labelBackgroundColor=none;fillStyle=solid;strokeColor=none;fontSize=16;fontColor=#FFFFFF;fillColor=none;gradientColor=none;" parent="1" vertex="1">
          <mxGeometry x="-233.00000000000006" y="-764" width="70" height="48" as="geometry" />
        </mxCell>
        <mxCell id="AX7mnTqwUvaXNK33T4vt-34" value="&lt;font style=&quot;font-size: 20px;&quot; color=&quot;#ffffff&quot;&gt;Semester 4&lt;br&gt;67%&lt;br&gt;70,560&lt;br&gt;&lt;/font&gt;" style="rounded=0;whiteSpace=wrap;html=1;labelBackgroundColor=none;fillStyle=solid;strokeColor=none;fillColor=#9FDB7D;gradientColor=none;" parent="1" vertex="1">
          <mxGeometry x="540" y="-888" width="149" height="124" as="geometry" />
        </mxCell>
        <mxCell id="AX7mnTqwUvaXNK33T4vt-37" value="&lt;font color=&quot;#000000&quot; style=&quot;font-size: 16px;&quot;&gt;1%&lt;br style=&quot;font-size: 16px;&quot;&gt;2,871&lt;br style=&quot;font-size: 16px;&quot;&gt;&lt;/font&gt;" style="rounded=0;whiteSpace=wrap;html=1;labelBackgroundColor=none;fillStyle=solid;strokeColor=none;fontSize=16;fontColor=#FFFFFF;fillColor=none;gradientColor=none;container=0;" parent="1" vertex="1">
          <mxGeometry x="176.44999999999996" y="-968.99" width="70" height="45.99" as="geometry" />
        </mxCell>
        <mxCell id="AX7mnTqwUvaXNK33T4vt-45" value="&lt;font style=&quot;font-size: 20px;&quot; color=&quot;#ffffff&quot;&gt;Semester 1&lt;br&gt;100%&lt;br&gt;227,143&lt;br&gt;&lt;/font&gt;" style="rounded=0;whiteSpace=wrap;html=1;labelBackgroundColor=none;fillStyle=solid;strokeColor=none;fillColor=#648A4F;gradientColor=none;" parent="1" vertex="1">
          <mxGeometry x="90" y="-927" width="150" height="400" as="geometry" />
        </mxCell>
        <mxCell id="AX7mnTqwUvaXNK33T4vt-47" value="&lt;font style=&quot;font-size: 20px;&quot; color=&quot;#ffffff&quot;&gt;Semester 2&lt;br&gt;67%&lt;br&gt;152,813&lt;br&gt;&lt;/font&gt;" style="rounded=0;whiteSpace=wrap;html=1;labelBackgroundColor=none;fillStyle=solid;strokeColor=none;fillColor=#7CAB62;gradientColor=none;" parent="1" vertex="1">
          <mxGeometry x="240" y="-922" width="150" height="269" as="geometry" />
        </mxCell>
        <mxCell id="AX7mnTqwUvaXNK33T4vt-49" value="&lt;font style=&quot;font-size: 20px;&quot; color=&quot;#ffffff&quot;&gt;Semester 5&lt;br&gt;67%&lt;br&gt;46,981&lt;br&gt;&lt;/font&gt;" style="rounded=0;whiteSpace=wrap;html=1;labelBackgroundColor=none;fillStyle=solid;strokeColor=none;fillColor=#B9E0A5;gradientColor=none;" parent="1" vertex="1">
          <mxGeometry x="689" y="-867" width="151" height="83" as="geometry" />
        </mxCell>
        <mxCell id="AX7mnTqwUvaXNK33T4vt-50" value="&lt;font color=&quot;#000000&quot;&gt;Does not enroll following semester&lt;/font&gt;" style="rounded=0;whiteSpace=wrap;html=1;labelBackgroundColor=none;fillStyle=solid;strokeColor=none;fontSize=20;fontColor=#FFFFFF;fillColor=none;gradientColor=none;" parent="1" vertex="1">
          <mxGeometry x="395" y="-387" width="233.74" height="60" as="geometry" />
        </mxCell>
        <mxCell id="AX7mnTqwUvaXNK33T4vt-51" value="&lt;font color=&quot;#000000&quot;&gt;Completes a degree or upward transfers&lt;/font&gt;" style="rounded=0;whiteSpace=wrap;html=1;labelBackgroundColor=none;fillStyle=solid;strokeColor=none;fontSize=20;fontColor=#FFFFFF;fillColor=none;gradientColor=none;" parent="1" vertex="1">
          <mxGeometry x="394" y="-1050" width="233.74" height="60" as="geometry" />
        </mxCell>
        <mxCell id="AX7mnTqwUvaXNK33T4vt-52" value="&lt;font color=&quot;#000000&quot; style=&quot;font-size: 16px;&quot;&gt;6%&lt;br style=&quot;font-size: 16px;&quot;&gt;8,991&lt;br style=&quot;font-size: 16px;&quot;&gt;&lt;/font&gt;" style="rounded=0;whiteSpace=wrap;html=1;labelBackgroundColor=none;fillStyle=solid;strokeColor=none;fontSize=16;fontColor=#FFFFFF;fillColor=none;gradientColor=none;" parent="1" vertex="1">
          <mxGeometry x="324.99999999999994" y="-965" width="70" height="44" as="geometry" />
        </mxCell>
        <mxCell id="AX7mnTqwUvaXNK33T4vt-53" value="&lt;font color=&quot;#000000&quot; style=&quot;font-size: 16px;&quot;&gt;10%&lt;br style=&quot;font-size: 16px;&quot;&gt;10,155&lt;br style=&quot;font-size: 16px;&quot;&gt;&lt;/font&gt;" style="rounded=0;whiteSpace=wrap;html=1;labelBackgroundColor=none;fillStyle=solid;strokeColor=none;fontSize=16;fontColor=#FFFFFF;fillColor=none;gradientColor=none;" parent="1" vertex="1">
          <mxGeometry x="466.0000000000001" y="-947.87" width="70" height="45.75" as="geometry" />
        </mxCell>
        <mxCell id="AX7mnTqwUvaXNK33T4vt-54" value="&lt;font color=&quot;#000000&quot;&gt;Fall 2017&lt;/font&gt;" style="rounded=0;whiteSpace=wrap;html=1;labelBackgroundColor=none;fillStyle=solid;strokeColor=none;fontSize=20;fontColor=#FFFFFF;fillColor=none;gradientColor=none;" parent="1" vertex="1">
          <mxGeometry y="-1067" width="130" height="60" as="geometry" />
        </mxCell>
        <mxCell id="AX7mnTqwUvaXNK33T4vt-57" value="&lt;font color=&quot;#000000&quot; style=&quot;font-size: 16px;&quot;&gt;32%&lt;br style=&quot;font-size: 16px;&quot;&gt;71,459&lt;br style=&quot;font-size: 16px;&quot;&gt;&lt;/font&gt;" style="rounded=0;whiteSpace=wrap;html=1;labelBackgroundColor=none;fillStyle=solid;strokeColor=none;fontSize=16;fontColor=#FFFFFF;fillColor=none;gradientColor=none;" parent="1" vertex="1">
          <mxGeometry x="176.45000000000002" y="-532" width="70" height="50" as="geometry" />
        </mxCell>
        <mxCell id="AX7mnTqwUvaXNK33T4vt-58" value="&lt;font color=&quot;#000000&quot; style=&quot;font-size: 16px;&quot;&gt;25%&lt;br style=&quot;font-size: 16px;&quot;&gt;38,372&lt;br style=&quot;font-size: 16px;&quot;&gt;&lt;/font&gt;" style="rounded=0;whiteSpace=wrap;html=1;labelBackgroundColor=none;fillStyle=solid;strokeColor=none;fontSize=16;fontColor=#FFFFFF;fillColor=none;gradientColor=none;" parent="1" vertex="1">
          <mxGeometry x="329.99999999999994" y="-658" width="60" height="51" as="geometry" />
        </mxCell>
        <mxCell id="AX7mnTqwUvaXNK33T4vt-61" value="&lt;font color=&quot;#000000&quot; style=&quot;font-size: 16px;&quot;&gt;17%&lt;br style=&quot;font-size: 16px;&quot;&gt;12,146&lt;br style=&quot;font-size: 16px;&quot;&gt;&lt;/font&gt;" style="rounded=0;whiteSpace=wrap;html=1;labelBackgroundColor=none;fillStyle=solid;strokeColor=none;fontSize=16;fontColor=#FFFFFF;fillColor=none;gradientColor=none;" parent="1" vertex="1">
          <mxGeometry x="619" y="-937.8" width="70" height="60.5" as="geometry" />
        </mxCell>
        <mxCell id="AX7mnTqwUvaXNK33T4vt-62" value="&lt;font style=&quot;font-size: 20px;&quot; color=&quot;#ffffff&quot;&gt;Semester 3&lt;br&gt;69%&lt;br&gt;105,450&lt;br&gt;&lt;/font&gt;" style="rounded=0;whiteSpace=wrap;html=1;labelBackgroundColor=none;fillStyle=solid;strokeColor=none;fillColor=#8DC26F;gradientColor=none;" parent="1" vertex="1">
          <mxGeometry x="390" y="-906" width="150" height="186" as="geometry" />
        </mxCell>
        <mxCell id="AX7mnTqwUvaXNK33T4vt-63" value="&lt;font color=&quot;#000000&quot; style=&quot;font-size: 16px;&quot;&gt;24%&lt;br style=&quot;font-size: 16px;&quot;&gt;24,735&lt;br style=&quot;font-size: 16px;&quot;&gt;&lt;/font&gt;" style="rounded=0;whiteSpace=wrap;html=1;labelBackgroundColor=none;fillStyle=solid;strokeColor=none;fontSize=16;fontColor=#FFFFFF;fillColor=none;gradientColor=none;" parent="1" vertex="1">
          <mxGeometry x="471" y="-723" width="60" height="45" as="geometry" />
        </mxCell>
        <mxCell id="AX7mnTqwUvaXNK33T4vt-67" value="&lt;font style=&quot;font-size: 20px;&quot; color=&quot;#ffffff&quot;&gt;Semester 4&lt;br&gt;68%&lt;br&gt;70,798&lt;br&gt;&lt;/font&gt;" style="rounded=0;whiteSpace=wrap;html=1;labelBackgroundColor=none;fillStyle=solid;strokeColor=none;fillColor=#990001;gradientColor=none;" parent="1" vertex="1">
          <mxGeometry x="-1155" y="179" width="149" height="126" as="geometry" />
        </mxCell>
        <mxCell id="AX7mnTqwUvaXNK33T4vt-70" value="&lt;font color=&quot;#000000&quot; style=&quot;font-size: 16px;&quot;&gt;1%&lt;br style=&quot;font-size: 16px;&quot;&gt;3,218&lt;br style=&quot;font-size: 16px;&quot;&gt;&lt;/font&gt;" style="rounded=0;whiteSpace=wrap;html=1;labelBackgroundColor=none;fillStyle=solid;strokeColor=none;fontSize=16;fontColor=#FFFFFF;fillColor=none;gradientColor=none;container=0;" parent="1" vertex="1">
          <mxGeometry x="-1518.55" y="95.00999999999999" width="70" height="45.99" as="geometry" />
        </mxCell>
        <mxCell id="AX7mnTqwUvaXNK33T4vt-78" value="&lt;font style=&quot;font-size: 20px;&quot; color=&quot;#ffffff&quot;&gt;Semester 1&lt;br&gt;100%&lt;br&gt;225,631&lt;br&gt;&lt;/font&gt;" style="rounded=0;whiteSpace=wrap;html=1;labelBackgroundColor=none;fillStyle=solid;strokeColor=none;fillColor=#648A4F;gradientColor=none;" parent="1" vertex="1">
          <mxGeometry x="-1605" y="140" width="150" height="400" as="geometry" />
        </mxCell>
        <mxCell id="AX7mnTqwUvaXNK33T4vt-80" value="&lt;font style=&quot;font-size: 20px;&quot; color=&quot;#ffffff&quot;&gt;Semester 2&lt;br&gt;66%&lt;br&gt;149,087&lt;br&gt;&lt;/font&gt;" style="rounded=0;whiteSpace=wrap;html=1;labelBackgroundColor=none;fillStyle=solid;strokeColor=none;fillColor=#7CAB62;gradientColor=none;" parent="1" vertex="1">
          <mxGeometry x="-1455" y="146" width="150" height="264" as="geometry" />
        </mxCell>
        <mxCell id="AX7mnTqwUvaXNK33T4vt-82" value="&lt;font style=&quot;font-size: 20px;&quot; color=&quot;#ffffff&quot;&gt;Semester 5&lt;br&gt;65%&lt;br&gt;45,720&lt;br&gt;&lt;/font&gt;" style="rounded=0;whiteSpace=wrap;html=1;labelBackgroundColor=none;fillStyle=solid;strokeColor=none;fillColor=#bf0101;gradientColor=none;" parent="1" vertex="1">
          <mxGeometry x="-1006" y="201" width="150" height="81" as="geometry" />
        </mxCell>
        <mxCell id="AX7mnTqwUvaXNK33T4vt-83" value="&lt;font color=&quot;#000000&quot;&gt;Does not enroll following semester&lt;/font&gt;" style="rounded=0;whiteSpace=wrap;html=1;labelBackgroundColor=none;fillStyle=solid;strokeColor=none;fontSize=20;fontColor=#FFFFFF;fillColor=none;gradientColor=none;" parent="1" vertex="1">
          <mxGeometry x="-1295" y="674" width="233.74" height="60" as="geometry" />
        </mxCell>
        <mxCell id="AX7mnTqwUvaXNK33T4vt-84" value="&lt;font color=&quot;#000000&quot;&gt;Completes a degree or upward transfers&lt;/font&gt;" style="rounded=0;whiteSpace=wrap;html=1;labelBackgroundColor=none;fillStyle=solid;strokeColor=none;fontSize=20;fontColor=#FFFFFF;fillColor=none;gradientColor=none;" parent="1" vertex="1">
          <mxGeometry x="-1305" y="43" width="233.74" height="60" as="geometry" />
        </mxCell>
        <mxCell id="AX7mnTqwUvaXNK33T4vt-85" value="&lt;font color=&quot;#000000&quot; style=&quot;font-size: 16px;&quot;&gt;6%&lt;br style=&quot;font-size: 16px;&quot;&gt;9,038&lt;br style=&quot;font-size: 16px;&quot;&gt;&lt;/font&gt;" style="rounded=0;whiteSpace=wrap;html=1;labelBackgroundColor=none;fillStyle=solid;strokeColor=none;fontSize=16;fontColor=#FFFFFF;fillColor=none;gradientColor=none;" parent="1" vertex="1">
          <mxGeometry x="-1375" y="103" width="70" height="44" as="geometry" />
        </mxCell>
        <mxCell id="AX7mnTqwUvaXNK33T4vt-86" value="&lt;font color=&quot;#000000&quot; style=&quot;font-size: 16px;&quot;&gt;9%&lt;br style=&quot;font-size: 16px;&quot;&gt;9,771&lt;br style=&quot;font-size: 16px;&quot;&gt;&lt;/font&gt;" style="rounded=0;whiteSpace=wrap;html=1;labelBackgroundColor=none;fillStyle=solid;strokeColor=none;fontSize=16;fontColor=#FFFFFF;fillColor=none;gradientColor=none;" parent="1" vertex="1">
          <mxGeometry x="-1225" y="118" width="70" height="45.75" as="geometry" />
        </mxCell>
        <mxCell id="AX7mnTqwUvaXNK33T4vt-87" value="&lt;font color=&quot;#000000&quot;&gt;Fall 2018&lt;/font&gt;" style="rounded=0;whiteSpace=wrap;html=1;labelBackgroundColor=none;fillStyle=solid;strokeColor=none;fontSize=20;fontColor=#FFFFFF;fillColor=none;gradientColor=none;" parent="1" vertex="1">
          <mxGeometry x="-1695" width="130" height="60" as="geometry" />
        </mxCell>
        <mxCell id="AX7mnTqwUvaXNK33T4vt-90" value="&lt;font color=&quot;#000000&quot; style=&quot;font-size: 16px;&quot;&gt;33%&lt;br style=&quot;font-size: 16px;&quot;&gt;73,326&lt;br style=&quot;font-size: 16px;&quot;&gt;&lt;/font&gt;" style="rounded=0;whiteSpace=wrap;html=1;labelBackgroundColor=none;fillStyle=solid;strokeColor=none;fontSize=16;fontColor=#FFFFFF;fillColor=none;gradientColor=none;" parent="1" vertex="1">
          <mxGeometry x="-1523.85" y="537" width="70" height="50" as="geometry" />
        </mxCell>
        <mxCell id="AX7mnTqwUvaXNK33T4vt-91" value="&lt;font color=&quot;#000000&quot; style=&quot;font-size: 16px;&quot;&gt;25%&lt;br style=&quot;font-size: 16px;&quot;&gt;36,486&lt;/font&gt;&lt;font color=&quot;#000000&quot; style=&quot;font-size: 16px;&quot;&gt;&lt;br style=&quot;font-size: 16px;&quot;&gt;&lt;/font&gt;" style="rounded=0;whiteSpace=wrap;html=1;labelBackgroundColor=none;fillStyle=solid;strokeColor=none;fontSize=16;fontColor=#FFFFFF;fillColor=none;gradientColor=none;" parent="1" vertex="1">
          <mxGeometry x="-1372" y="405" width="60" height="51" as="geometry" />
        </mxCell>
        <mxCell id="AX7mnTqwUvaXNK33T4vt-94" value="&lt;font color=&quot;#000000&quot; style=&quot;font-size: 16px;&quot;&gt;17%&lt;br style=&quot;font-size: 16px;&quot;&gt;12,312&lt;br style=&quot;font-size: 16px;&quot;&gt;&lt;/font&gt;" style="rounded=0;whiteSpace=wrap;html=1;labelBackgroundColor=none;fillStyle=solid;strokeColor=none;fontSize=16;fontColor=#FFFFFF;fillColor=none;gradientColor=none;" parent="1" vertex="1">
          <mxGeometry x="-1076" y="131.75" width="70" height="51.5" as="geometry" />
        </mxCell>
        <mxCell id="AX7mnTqwUvaXNK33T4vt-95" value="&lt;font style=&quot;font-size: 20px;&quot; color=&quot;#ffffff&quot;&gt;Semester 3&lt;br&gt;70%&lt;br&gt;103,563&lt;br&gt;&lt;/font&gt;" style="rounded=0;whiteSpace=wrap;html=1;labelBackgroundColor=none;fillStyle=solid;strokeColor=none;fillColor=#8DC26F;gradientColor=none;" parent="1" vertex="1">
          <mxGeometry x="-1305" y="162" width="150" height="184" as="geometry" />
        </mxCell>
        <mxCell id="AX7mnTqwUvaXNK33T4vt-96" value="&lt;font color=&quot;#000000&quot; style=&quot;font-size: 16px;&quot;&gt;22%&lt;br style=&quot;font-size: 16px;&quot;&gt;22,994&lt;br style=&quot;font-size: 16px;&quot;&gt;&lt;/font&gt;" style="rounded=0;whiteSpace=wrap;html=1;labelBackgroundColor=none;fillStyle=solid;strokeColor=none;fontSize=16;fontColor=#FFFFFF;fillColor=none;gradientColor=none;" parent="1" vertex="1">
          <mxGeometry x="-1235.6" y="346" width="60" height="45" as="geometry" />
        </mxCell>
        <mxCell id="AX7mnTqwUvaXNK33T4vt-99" value="&lt;font color=&quot;#000000&quot; style=&quot;font-size: 16px;&quot;&gt;18%&lt;br style=&quot;font-size: 16px;&quot;&gt;12,766&lt;br style=&quot;font-size: 16px;&quot;&gt;&lt;/font&gt;" style="rounded=0;whiteSpace=wrap;html=1;labelBackgroundColor=none;fillStyle=solid;strokeColor=none;fontSize=16;fontColor=#FFFFFF;fillColor=none;gradientColor=none;" parent="1" vertex="1">
          <mxGeometry x="-1081" y="299" width="70" height="48" as="geometry" />
        </mxCell>
        <mxCell id="AX7mnTqwUvaXNK33T4vt-100" value="&lt;font style=&quot;font-size: 20px;&quot; color=&quot;#ffffff&quot;&gt;Semester 4&lt;br&gt;67%&lt;br&gt;68,441&lt;br&gt;&lt;/font&gt;" style="rounded=0;whiteSpace=wrap;html=1;labelBackgroundColor=none;fillStyle=solid;strokeColor=none;fillColor=#D90000;gradientColor=none;" parent="1" vertex="1">
          <mxGeometry x="-312" y="178" width="149" height="121" as="geometry" />
        </mxCell>
        <mxCell id="AX7mnTqwUvaXNK33T4vt-103" value="&lt;font color=&quot;#000000&quot; style=&quot;font-size: 16px;&quot;&gt;1%&lt;br style=&quot;font-size: 16px;&quot;&gt;3,048&lt;br style=&quot;font-size: 16px;&quot;&gt;&lt;/font&gt;" style="rounded=0;whiteSpace=wrap;html=1;labelBackgroundColor=none;fillStyle=solid;strokeColor=none;fontSize=16;fontColor=#FFFFFF;fillColor=none;gradientColor=none;container=0;" parent="1" vertex="1">
          <mxGeometry x="-673.5500000000001" y="95.00999999999999" width="70" height="45.99" as="geometry" />
        </mxCell>
        <mxCell id="AX7mnTqwUvaXNK33T4vt-111" value="&lt;font style=&quot;font-size: 20px;&quot; color=&quot;#ffffff&quot;&gt;Semester 1&lt;br&gt;100%&lt;br&gt;225,479&lt;br&gt;&lt;/font&gt;" style="rounded=0;whiteSpace=wrap;html=1;labelBackgroundColor=none;fillStyle=solid;strokeColor=none;fillColor=#648A4F;gradientColor=none;" parent="1" vertex="1">
          <mxGeometry x="-760" y="140" width="150" height="400" as="geometry" />
        </mxCell>
        <mxCell id="AX7mnTqwUvaXNK33T4vt-113" value="&lt;font style=&quot;font-size: 20px;&quot; color=&quot;#ffffff&quot;&gt;Semester 2&lt;br&gt;67%&lt;br&gt;151,361&lt;br&gt;&lt;/font&gt;" style="rounded=0;whiteSpace=wrap;html=1;labelBackgroundColor=none;fillStyle=solid;strokeColor=none;fillColor=#990000;gradientColor=none;" parent="1" vertex="1">
          <mxGeometry x="-610" y="146" width="150" height="268" as="geometry" />
        </mxCell>
        <mxCell id="AX7mnTqwUvaXNK33T4vt-115" value="&lt;font style=&quot;font-size: 20px;&quot; color=&quot;#ffffff&quot;&gt;Semester 5&lt;br&gt;65%&lt;br&gt;44,409&lt;br&gt;&lt;/font&gt;" style="rounded=0;whiteSpace=wrap;html=1;labelBackgroundColor=none;fillStyle=solid;strokeColor=none;fillColor=#FF0000;gradientColor=none;" parent="1" vertex="1">
          <mxGeometry x="-163" y="202" width="150" height="79" as="geometry" />
        </mxCell>
        <mxCell id="AX7mnTqwUvaXNK33T4vt-116" value="&lt;font color=&quot;#000000&quot;&gt;Does not enroll following semester&lt;/font&gt;" style="rounded=0;whiteSpace=wrap;html=1;labelBackgroundColor=none;fillStyle=solid;strokeColor=none;fontSize=20;fontColor=#FFFFFF;fillColor=none;gradientColor=none;" parent="1" vertex="1">
          <mxGeometry x="-444.1" y="683" width="233.74" height="60" as="geometry" />
        </mxCell>
        <mxCell id="AX7mnTqwUvaXNK33T4vt-117" value="&lt;font color=&quot;#000000&quot;&gt;Completes a degree or upward transfers&lt;/font&gt;" style="rounded=0;whiteSpace=wrap;html=1;labelBackgroundColor=none;fillStyle=solid;strokeColor=none;fontSize=20;fontColor=#FFFFFF;fillColor=none;gradientColor=none;" parent="1" vertex="1">
          <mxGeometry x="-437.9" y="43" width="217.9" height="60" as="geometry" />
        </mxCell>
        <mxCell id="AX7mnTqwUvaXNK33T4vt-118" value="&lt;font color=&quot;#000000&quot; style=&quot;font-size: 16px;&quot;&gt;6%&lt;br style=&quot;font-size: 16px;&quot;&gt;8,578&lt;br style=&quot;font-size: 16px;&quot;&gt;&lt;/font&gt;" style="rounded=0;whiteSpace=wrap;html=1;labelBackgroundColor=none;fillStyle=solid;strokeColor=none;fontSize=16;fontColor=#FFFFFF;fillColor=none;gradientColor=none;" parent="1" vertex="1">
          <mxGeometry x="-530" y="103" width="70" height="44" as="geometry" />
        </mxCell>
        <mxCell id="AX7mnTqwUvaXNK33T4vt-119" value="&lt;font color=&quot;#000000&quot; style=&quot;font-size: 16px;&quot;&gt;10%&lt;br style=&quot;font-size: 16px;&quot;&gt;9,885&lt;br style=&quot;font-size: 16px;&quot;&gt;&lt;/font&gt;" style="rounded=0;whiteSpace=wrap;html=1;labelBackgroundColor=none;fillStyle=solid;strokeColor=none;fontSize=16;fontColor=#FFFFFF;fillColor=none;gradientColor=none;" parent="1" vertex="1">
          <mxGeometry x="-386.5999999999999" y="117" width="70" height="45.75" as="geometry" />
        </mxCell>
        <mxCell id="AX7mnTqwUvaXNK33T4vt-120" value="&lt;font color=&quot;#000000&quot;&gt;Fall 2019&lt;/font&gt;" style="rounded=0;whiteSpace=wrap;html=1;labelBackgroundColor=none;fillStyle=solid;strokeColor=none;fontSize=20;fontColor=#FFFFFF;fillColor=none;gradientColor=none;" parent="1" vertex="1">
          <mxGeometry x="-850" width="130" height="60" as="geometry" />
        </mxCell>
        <mxCell id="AX7mnTqwUvaXNK33T4vt-123" value="&lt;font color=&quot;#000000&quot; style=&quot;font-size: 16px;&quot;&gt;32%&lt;br style=&quot;font-size: 16px;&quot;&gt;71,070&lt;br style=&quot;font-size: 16px;&quot;&gt;&lt;/font&gt;" style="rounded=0;whiteSpace=wrap;html=1;labelBackgroundColor=none;fillStyle=solid;strokeColor=none;fontSize=16;fontColor=#FFFFFF;fillColor=none;gradientColor=none;" parent="1" vertex="1">
          <mxGeometry x="-673.55" y="537" width="70" height="50" as="geometry" />
        </mxCell>
        <mxCell id="AX7mnTqwUvaXNK33T4vt-124" value="&lt;font color=&quot;#000000&quot; style=&quot;font-size: 16px;&quot;&gt;26%&lt;br style=&quot;font-size: 16px;&quot;&gt;39,960&lt;br style=&quot;font-size: 16px;&quot;&gt;&lt;/font&gt;" style="rounded=0;whiteSpace=wrap;html=1;labelBackgroundColor=none;fillStyle=solid;strokeColor=none;fontSize=16;fontColor=#FFFFFF;fillColor=none;gradientColor=none;" parent="1" vertex="1">
          <mxGeometry x="-521" y="410" width="60" height="51" as="geometry" />
        </mxCell>
        <mxCell id="AX7mnTqwUvaXNK33T4vt-127" value="&lt;font color=&quot;#000000&quot; style=&quot;font-size: 16px;&quot;&gt;19%&lt;br style=&quot;font-size: 16px;&quot;&gt;13,074&lt;br style=&quot;font-size: 16px;&quot;&gt;&lt;/font&gt;" style="rounded=0;whiteSpace=wrap;html=1;labelBackgroundColor=none;fillStyle=solid;strokeColor=none;fontSize=16;fontColor=#FFFFFF;fillColor=none;gradientColor=none;" parent="1" vertex="1">
          <mxGeometry x="-232.99999999999994" y="131.75" width="70" height="51.5" as="geometry" />
        </mxCell>
        <mxCell id="AX7mnTqwUvaXNK33T4vt-128" value="&lt;font style=&quot;font-size: 20px;&quot; color=&quot;#ffffff&quot;&gt;Semester 3&lt;br&gt;68%&lt;br&gt;102,823&lt;br&gt;&lt;/font&gt;" style="rounded=0;whiteSpace=wrap;html=1;labelBackgroundColor=none;fillStyle=solid;strokeColor=none;fillColor=#BF0000;gradientColor=none;" parent="1" vertex="1">
          <mxGeometry x="-460" y="161" width="148" height="182" as="geometry" />
        </mxCell>
        <mxCell id="AX7mnTqwUvaXNK33T4vt-129" value="&lt;font color=&quot;#000000&quot; style=&quot;font-size: 16px;&quot;&gt;24%&lt;br style=&quot;font-size: 16px;&quot;&gt;24,497&lt;br style=&quot;font-size: 16px;&quot;&gt;&lt;/font&gt;" style="rounded=0;whiteSpace=wrap;html=1;labelBackgroundColor=none;fillStyle=solid;strokeColor=none;fontSize=16;fontColor=#FFFFFF;fillColor=none;gradientColor=none;" parent="1" vertex="1">
          <mxGeometry x="-376.6" y="341" width="60" height="45" as="geometry" />
        </mxCell>
        <mxCell id="AX7mnTqwUvaXNK33T4vt-132" value="&lt;font color=&quot;#000000&quot; style=&quot;font-size: 16px;&quot;&gt;16%&lt;br style=&quot;font-size: 16px;&quot;&gt;10,958&lt;br style=&quot;font-size: 16px;&quot;&gt;&lt;/font&gt;" style="rounded=0;whiteSpace=wrap;html=1;labelBackgroundColor=none;fillStyle=solid;strokeColor=none;fontSize=16;fontColor=#FFFFFF;fillColor=none;gradientColor=none;" parent="1" vertex="1">
          <mxGeometry x="-233.00000000000006" y="295" width="70" height="48" as="geometry" />
        </mxCell>
        <mxCell id="AX7mnTqwUvaXNK33T4vt-136" value="&lt;font color=&quot;#000000&quot; style=&quot;font-size: 16px;&quot;&gt;1%&lt;br style=&quot;font-size: 16px;&quot;&gt;2,644&lt;br style=&quot;font-size: 16px;&quot;&gt;&lt;/font&gt;" style="rounded=0;whiteSpace=wrap;html=1;labelBackgroundColor=none;fillStyle=solid;strokeColor=none;fontSize=16;fontColor=#FFFFFF;fillColor=none;gradientColor=none;container=0;" parent="1" vertex="1">
          <mxGeometry x="174.79999999999995" y="95.00999999999999" width="70" height="45.99" as="geometry" />
        </mxCell>
        <mxCell id="AX7mnTqwUvaXNK33T4vt-144" value="&lt;font style=&quot;font-size: 20px;&quot; color=&quot;#ffffff&quot;&gt;Semester 1&lt;br&gt;100%&lt;br&gt;192,095&lt;br&gt;&lt;/font&gt;" style="rounded=0;whiteSpace=wrap;html=1;labelBackgroundColor=none;fillStyle=solid;strokeColor=none;fillColor=#990000;gradientColor=none;" parent="1" vertex="1">
          <mxGeometry x="90" y="140" width="150" height="400" as="geometry" />
        </mxCell>
        <mxCell id="AX7mnTqwUvaXNK33T4vt-146" value="&lt;font style=&quot;font-size: 20px;&quot; color=&quot;#ffffff&quot;&gt;Semester 2&lt;br&gt;64%&lt;br&gt;122,537&lt;br&gt;&lt;/font&gt;" style="rounded=0;whiteSpace=wrap;html=1;labelBackgroundColor=none;fillStyle=solid;strokeColor=none;fillColor=#BF0000;gradientColor=none;" parent="1" vertex="1">
          <mxGeometry x="240" y="146" width="150" height="255" as="geometry" />
        </mxCell>
        <mxCell id="AX7mnTqwUvaXNK33T4vt-149" value="&lt;font color=&quot;#000000&quot;&gt;Does not enroll following semester&lt;/font&gt;" style="rounded=0;whiteSpace=wrap;html=1;labelBackgroundColor=none;fillStyle=solid;strokeColor=none;fontSize=20;fontColor=#FFFFFF;fillColor=none;gradientColor=none;" parent="1" vertex="1">
          <mxGeometry x="403" y="683" width="233.74" height="60" as="geometry" />
        </mxCell>
        <mxCell id="AX7mnTqwUvaXNK33T4vt-150" value="&lt;font color=&quot;#000000&quot;&gt;Completes a degree or upward transfers&lt;/font&gt;" style="rounded=0;whiteSpace=wrap;html=1;labelBackgroundColor=none;fillStyle=solid;strokeColor=none;fontSize=20;fontColor=#FFFFFF;fillColor=none;gradientColor=none;" parent="1" vertex="1">
          <mxGeometry x="390" y="43" width="233.74" height="60" as="geometry" />
        </mxCell>
        <mxCell id="AX7mnTqwUvaXNK33T4vt-151" value="&lt;font color=&quot;#000000&quot; style=&quot;font-size: 16px;&quot;&gt;6%&lt;br style=&quot;font-size: 16px;&quot;&gt;8,541&lt;br style=&quot;font-size: 16px;&quot;&gt;&lt;/font&gt;" style="rounded=0;whiteSpace=wrap;html=1;labelBackgroundColor=none;fillStyle=solid;strokeColor=none;fontSize=16;fontColor=#FFFFFF;fillColor=none;gradientColor=none;" parent="1" vertex="1">
          <mxGeometry x="323.99999999999994" y="103" width="70" height="44" as="geometry" />
        </mxCell>
        <mxCell id="AX7mnTqwUvaXNK33T4vt-153" value="&lt;font color=&quot;#000000&quot;&gt;Fall 2020&lt;/font&gt;" style="rounded=0;whiteSpace=wrap;html=1;labelBackgroundColor=none;fillStyle=solid;strokeColor=none;fontSize=20;fontColor=#FFFFFF;fillColor=none;gradientColor=none;" parent="1" vertex="1">
          <mxGeometry y="3" width="130" height="60" as="geometry" />
        </mxCell>
        <mxCell id="AX7mnTqwUvaXNK33T4vt-156" value="&lt;font color=&quot;#000000&quot; style=&quot;font-size: 16px;&quot;&gt;35%&lt;br style=&quot;font-size: 16px;&quot;&gt;66,914&lt;br style=&quot;font-size: 16px;&quot;&gt;&lt;/font&gt;" style="rounded=0;whiteSpace=wrap;html=1;labelBackgroundColor=none;fillStyle=solid;strokeColor=none;fontSize=16;fontColor=#FFFFFF;fillColor=none;gradientColor=none;" parent="1" vertex="1">
          <mxGeometry x="170.97000000000003" y="539" width="70" height="50" as="geometry" />
        </mxCell>
        <mxCell id="AX7mnTqwUvaXNK33T4vt-157" value="&lt;font color=&quot;#000000&quot; style=&quot;font-size: 16px;&quot;&gt;25%&lt;br style=&quot;font-size: 16px;&quot;&gt;29,614&lt;br style=&quot;font-size: 16px;&quot;&gt;&lt;/font&gt;" style="rounded=0;whiteSpace=wrap;html=1;labelBackgroundColor=none;fillStyle=solid;strokeColor=none;fontSize=16;fontColor=#FFFFFF;fillColor=none;gradientColor=none;" parent="1" vertex="1">
          <mxGeometry x="328.99999999999994" y="400" width="60" height="51" as="geometry" />
        </mxCell>
        <mxCell id="AX7mnTqwUvaXNK33T4vt-166" value="&lt;font style=&quot;font-size: 20px;&quot; color=&quot;#ffffff&quot;&gt;Semester 3&lt;br&gt;69%&lt;br&gt;84,382&lt;br&gt;&lt;/font&gt;" style="rounded=0;whiteSpace=wrap;html=1;labelBackgroundColor=none;fillStyle=solid;strokeColor=none;fillColor=#D90000;gradientColor=none;" parent="1" vertex="1">
          <mxGeometry x="390" y="160" width="150" height="176" as="geometry" />
        </mxCell>
        <mxCell id="_n7FMAc8PSbJCU8tSfX3-17" value="" style="verticalLabelPosition=bottom;verticalAlign=top;html=1;shape=mxgraph.basic.half_circle;flipV=1;fillColor=#8DC26F;strokeColor=#8DC26F;" parent="1" vertex="1">
          <mxGeometry x="-352.6" y="-762" width="82" height="39" as="geometry" />
        </mxCell>
        <mxCell id="_n7FMAc8PSbJCU8tSfX3-18" value="" style="verticalLabelPosition=bottom;verticalAlign=top;html=1;shape=mxgraph.basic.half_circle;flipV=1;strokeColor=#7CAB62;fillColor=#7CAB62;" parent="1" vertex="1">
          <mxGeometry x="-522.6" y="-721" width="122" height="63" as="geometry" />
        </mxCell>
        <mxCell id="_n7FMAc8PSbJCU8tSfX3-19" value="" style="verticalLabelPosition=bottom;verticalAlign=top;html=1;shape=mxgraph.basic.half_circle;flipV=1;rotation=-180;fillColor=#7CAB62;strokeColor=#7CAB62;" parent="1" vertex="1">
          <mxGeometry x="-475" y="-923" width="27" height="12" as="geometry" />
        </mxCell>
        <mxCell id="_n7FMAc8PSbJCU8tSfX3-20" value="" style="group" parent="1" vertex="1" connectable="0">
          <mxGeometry x="-190" y="-784" width="50" height="70" as="geometry" />
        </mxCell>
        <mxCell id="_n7FMAc8PSbJCU8tSfX3-21" value="" style="html=1;shadow=0;dashed=0;align=center;verticalAlign=middle;shape=mxgraph.arrows2.arrow;dy=0.53;dx=21.54;direction=south;notch=0;fillColor=#9FDB7D;strokeColor=none;" parent="_n7FMAc8PSbJCU8tSfX3-20" vertex="1">
          <mxGeometry x="18.8" y="21" width="37.75" height="39.65" as="geometry" />
        </mxCell>
        <mxCell id="_n7FMAc8PSbJCU8tSfX3-22" value="" style="verticalLabelPosition=bottom;verticalAlign=top;html=1;shape=mxgraph.basic.half_circle;flipV=1;fillColor=#9FDB7D;strokeColor=none;" parent="_n7FMAc8PSbJCU8tSfX3-20" vertex="1">
          <mxGeometry x="1.501793283338766" y="0.6666666666666669" width="45.05379850016298" height="21.33333333333334" as="geometry" />
        </mxCell>
        <mxCell id="_n7FMAc8PSbJCU8tSfX3-23" value="" style="html=1;shadow=0;dashed=0;align=center;verticalAlign=middle;shape=mxgraph.arrows2.arrow;dy=0.49;dx=13.17;direction=south;notch=0;rotation=-180;fillColor=#7CAB62;strokeColor=#7CAB62;" parent="1" vertex="1">
          <mxGeometry x="-468.6" y="-952" width="27.3" height="29" as="geometry" />
        </mxCell>
        <mxCell id="_n7FMAc8PSbJCU8tSfX3-24" value="" style="html=1;shadow=0;dashed=0;align=center;verticalAlign=middle;shape=mxgraph.arrows2.arrow;dy=0.51;dx=17.01;direction=south;notch=0;rotation=-180;fillColor=#8DC26F;strokeColor=#8DC26F;" parent="1" vertex="1">
          <mxGeometry x="-320.6" y="-941" width="33.5" height="32" as="geometry" />
        </mxCell>
        <mxCell id="_n7FMAc8PSbJCU8tSfX3-25" value="" style="verticalLabelPosition=bottom;verticalAlign=top;html=1;shape=mxgraph.basic.half_circle;flipV=1;rotation=-180;fillColor=#8DC26F;strokeColor=#8DC26F;" parent="1" vertex="1">
          <mxGeometry x="-328.6" y="-910" width="33" height="15.75" as="geometry" />
        </mxCell>
        <mxCell id="_n7FMAc8PSbJCU8tSfX3-26" value="" style="html=1;shadow=0;dashed=0;align=center;verticalAlign=middle;shape=mxgraph.arrows2.arrow;dy=0.48;dx=59.93;direction=south;notch=0;strokeColor=#7CAB62;fillColor=#7CAB62;" parent="1" vertex="1">
          <mxGeometry x="-491.6" y="-658" width="120" height="120" as="geometry" />
        </mxCell>
        <mxCell id="_n7FMAc8PSbJCU8tSfX3-27" value="" style="verticalLabelPosition=bottom;verticalAlign=top;html=1;shape=mxgraph.basic.half_circle;flipV=1;fillColor=#648A4F;strokeColor=#648A4F;" parent="1" vertex="1">
          <mxGeometry x="-732.6" y="-655" width="241.3" height="124" as="geometry" />
        </mxCell>
        <mxCell id="_n7FMAc8PSbJCU8tSfX3-28" value="" style="html=1;shadow=0;dashed=0;align=center;verticalAlign=middle;shape=mxgraph.arrows2.arrow;dy=0.44;dx=115.12;direction=south;notch=0;fillColor=#648A4F;strokeColor=#648A4F;" parent="1" vertex="1">
          <mxGeometry x="-658.6" y="-531" width="214.5" height="206" as="geometry" />
        </mxCell>
        <mxCell id="_n7FMAc8PSbJCU8tSfX3-29" value="" style="html=1;shadow=0;dashed=0;align=center;verticalAlign=middle;shape=mxgraph.arrows2.arrow;dy=0.49;dx=43.54;direction=south;notch=0;fillColor=#8DC26F;strokeColor=#8DC26F;" parent="1" vertex="1">
          <mxGeometry x="-332.6" y="-722" width="82" height="86" as="geometry" />
        </mxCell>
        <mxCell id="_n7FMAc8PSbJCU8tSfX3-30" value="" style="verticalLabelPosition=bottom;verticalAlign=top;html=1;shape=mxgraph.basic.half_circle;flipV=1;rotation=-180;fillColor=#a0db7d;strokeColor=#a0db7d;" parent="1" vertex="1">
          <mxGeometry x="-183" y="-893" width="41" height="21" as="geometry" />
        </mxCell>
        <mxCell id="_n7FMAc8PSbJCU8tSfX3-31" value="" style="html=1;shadow=0;dashed=0;align=center;verticalAlign=middle;shape=mxgraph.arrows2.arrow;dy=0.4;dx=15;direction=south;notch=0;rotation=-180;fillColor=#a0db7d;strokeColor=#a0db7d;" parent="1" vertex="1">
          <mxGeometry x="-170" y="-931" width="35" height="39" as="geometry" />
        </mxCell>
        <mxCell id="_n7FMAc8PSbJCU8tSfX3-32" value="" style="verticalLabelPosition=bottom;verticalAlign=top;html=1;shape=mxgraph.basic.half_circle;flipV=1;fillColor=#8DC26F;strokeColor=#8DC26F;" parent="1" vertex="1">
          <mxGeometry x="500" y="-764" width="82" height="43" as="geometry" />
        </mxCell>
        <mxCell id="_n7FMAc8PSbJCU8tSfX3-33" value="" style="verticalLabelPosition=bottom;verticalAlign=top;html=1;shape=mxgraph.basic.half_circle;flipV=1;strokeColor=#7CAB62;fillColor=#7CAB62;" parent="1" vertex="1">
          <mxGeometry x="330" y="-719.51" width="122" height="63" as="geometry" />
        </mxCell>
        <mxCell id="_n7FMAc8PSbJCU8tSfX3-34" value="" style="verticalLabelPosition=bottom;verticalAlign=top;html=1;shape=mxgraph.basic.half_circle;flipV=1;rotation=-180;fillColor=#7CAB62;strokeColor=#7CAB62;" parent="1" vertex="1">
          <mxGeometry x="375" y="-921" width="30" height="15" as="geometry" />
        </mxCell>
        <mxCell id="_n7FMAc8PSbJCU8tSfX3-35" value="" style="group" parent="1" vertex="1" connectable="0">
          <mxGeometry x="667" y="-785" width="44" height="69.05999999999995" as="geometry" />
        </mxCell>
        <mxCell id="_n7FMAc8PSbJCU8tSfX3-36" value="" style="html=1;shadow=0;dashed=0;align=center;verticalAlign=middle;shape=mxgraph.arrows2.arrow;dy=0.53;dx=21.54;direction=south;notch=0;fillColor=#9FDB7D;strokeColor=none;" parent="_n7FMAc8PSbJCU8tSfX3-35" vertex="1">
          <mxGeometry x="14" y="20.1" width="36.65" height="37.9507142857143" as="geometry" />
        </mxCell>
        <mxCell id="_n7FMAc8PSbJCU8tSfX3-37" value="" style="verticalLabelPosition=bottom;verticalAlign=top;html=1;shape=mxgraph.basic.half_circle;flipV=1;fillColor=#9FDB7D;strokeColor=none;" parent="_n7FMAc8PSbJCU8tSfX3-35" vertex="1">
          <mxGeometry x="1.3215780893381137" y="0.6380952380952384" width="39.64734268014341" height="20.419047619047628" as="geometry" />
        </mxCell>
        <mxCell id="AX7mnTqwUvaXNK33T4vt-66" value="&lt;font color=&quot;#000000&quot; style=&quot;font-size: 16px;&quot;&gt;16%&lt;br style=&quot;font-size: 16px;&quot;&gt;11,433&lt;br style=&quot;font-size: 16px;&quot;&gt;&lt;/font&gt;" style="rounded=0;whiteSpace=wrap;html=1;labelBackgroundColor=none;fillStyle=solid;strokeColor=none;fontSize=16;fontColor=#FFFFFF;fillColor=none;gradientColor=none;" parent="_n7FMAc8PSbJCU8tSfX3-35" vertex="1">
          <mxGeometry x="-47" y="20" width="70" height="48.1" as="geometry" />
        </mxCell>
        <mxCell id="_n7FMAc8PSbJCU8tSfX3-38" value="" style="html=1;shadow=0;dashed=0;align=center;verticalAlign=middle;shape=mxgraph.arrows2.arrow;dy=0.49;dx=13.17;direction=south;notch=0;rotation=-180;fillColor=#7CAB62;strokeColor=#7CAB62;" parent="1" vertex="1">
          <mxGeometry x="383" y="-950" width="29.25" height="29" as="geometry" />
        </mxCell>
        <mxCell id="_n7FMAc8PSbJCU8tSfX3-39" value="" style="html=1;shadow=0;dashed=0;align=center;verticalAlign=middle;shape=mxgraph.arrows2.arrow;dy=0.51;dx=17.01;direction=south;notch=0;rotation=-180;fillColor=#8DC26F;strokeColor=#8DC26F;" parent="1" vertex="1">
          <mxGeometry x="531" y="-937" width="34.95" height="32" as="geometry" />
        </mxCell>
        <mxCell id="_n7FMAc8PSbJCU8tSfX3-40" value="" style="verticalLabelPosition=bottom;verticalAlign=top;html=1;shape=mxgraph.basic.half_circle;flipV=1;rotation=-180;fillColor=#8DC26F;strokeColor=#8DC26F;" parent="1" vertex="1">
          <mxGeometry x="523" y="-905.5" width="34" height="17" as="geometry" />
        </mxCell>
        <mxCell id="_n7FMAc8PSbJCU8tSfX3-41" value="" style="html=1;shadow=0;dashed=0;align=center;verticalAlign=middle;shape=mxgraph.arrows2.arrow;dy=0.48;dx=59.93;direction=south;notch=0;strokeColor=#7CAB62;fillColor=#7CAB62;" parent="1" vertex="1">
          <mxGeometry x="361" y="-657.51" width="120" height="120" as="geometry" />
        </mxCell>
        <mxCell id="_n7FMAc8PSbJCU8tSfX3-42" value="" style="verticalLabelPosition=bottom;verticalAlign=top;html=1;shape=mxgraph.basic.half_circle;flipV=1;fillColor=#648A4F;strokeColor=#648A4F;" parent="1" vertex="1">
          <mxGeometry x="120" y="-653" width="241.3" height="125" as="geometry" />
        </mxCell>
        <mxCell id="_n7FMAc8PSbJCU8tSfX3-43" value="" style="html=1;shadow=0;dashed=0;align=center;verticalAlign=middle;shape=mxgraph.arrows2.arrow;dy=0.44;dx=115.12;direction=south;notch=0;fillColor=#648A4F;strokeColor=#648A4F;" parent="1" vertex="1">
          <mxGeometry x="193" y="-529" width="216" height="206" as="geometry" />
        </mxCell>
        <mxCell id="_n7FMAc8PSbJCU8tSfX3-44" value="" style="html=1;shadow=0;dashed=0;align=center;verticalAlign=middle;shape=mxgraph.arrows2.arrow;dy=0.49;dx=43.54;direction=south;notch=0;fillColor=#8DC26F;strokeColor=#8DC26F;" parent="1" vertex="1">
          <mxGeometry x="520" y="-721.51" width="82" height="86" as="geometry" />
        </mxCell>
        <mxCell id="_n7FMAc8PSbJCU8tSfX3-45" value="" style="verticalLabelPosition=bottom;verticalAlign=top;html=1;shape=mxgraph.basic.half_circle;flipV=1;rotation=-180;fillColor=#a0db7d;strokeColor=#a0db7d;" parent="1" vertex="1">
          <mxGeometry x="672" y="-887" width="35" height="20" as="geometry" />
        </mxCell>
        <mxCell id="_n7FMAc8PSbJCU8tSfX3-46" value="" style="html=1;shadow=0;dashed=0;align=center;verticalAlign=middle;shape=mxgraph.arrows2.arrow;dy=0.45;dx=14.29;direction=south;notch=0;rotation=-180;fillColor=#a0db7d;strokeColor=#a0db7d;" parent="1" vertex="1">
          <mxGeometry x="682" y="-924.51" width="32.3" height="39" as="geometry" />
        </mxCell>
        <mxCell id="_n7FMAc8PSbJCU8tSfX3-47" value="" style="verticalLabelPosition=bottom;verticalAlign=top;html=1;shape=mxgraph.basic.half_circle;flipV=1;fillColor=#8DC26F;strokeColor=#8DC26F;" parent="1" vertex="1">
          <mxGeometry x="-1197.6" y="305" width="82" height="40" as="geometry" />
        </mxCell>
        <mxCell id="_n7FMAc8PSbJCU8tSfX3-48" value="" style="verticalLabelPosition=bottom;verticalAlign=top;html=1;shape=mxgraph.basic.half_circle;flipV=1;strokeColor=#7CAB62;fillColor=#7CAB62;" parent="1" vertex="1">
          <mxGeometry x="-1367.6" y="346" width="122" height="62" as="geometry" />
        </mxCell>
        <mxCell id="_n7FMAc8PSbJCU8tSfX3-49" value="" style="verticalLabelPosition=bottom;verticalAlign=top;html=1;shape=mxgraph.basic.half_circle;flipV=1;rotation=-180;fillColor=#7CAB62;strokeColor=#7CAB62;" parent="1" vertex="1">
          <mxGeometry x="-1321.6" y="147" width="32" height="15" as="geometry" />
        </mxCell>
        <mxCell id="_n7FMAc8PSbJCU8tSfX3-50" value="" style="group" parent="1" vertex="1" connectable="0">
          <mxGeometry x="-1032" y="279" width="50" height="72" as="geometry" />
        </mxCell>
        <mxCell id="_n7FMAc8PSbJCU8tSfX3-51" value="" style="html=1;shadow=0;dashed=0;align=center;verticalAlign=middle;shape=mxgraph.arrows2.arrow;dy=0.5;dx=24.76;direction=south;notch=0;fillColor=#990001;strokeColor=none;" parent="_n7FMAc8PSbJCU8tSfX3-50" vertex="1">
          <mxGeometry x="14" y="23" width="45.5" height="43" as="geometry" />
        </mxCell>
        <mxCell id="_n7FMAc8PSbJCU8tSfX3-52" value="" style="verticalLabelPosition=bottom;verticalAlign=top;html=1;shape=mxgraph.basic.half_circle;flipV=1;fillColor=#990001;strokeColor=none;" parent="_n7FMAc8PSbJCU8tSfX3-50" vertex="1">
          <mxGeometry x="4" y="0.6857142857142858" width="44" height="24" as="geometry" />
        </mxCell>
        <mxCell id="_n7FMAc8PSbJCU8tSfX3-53" value="" style="html=1;shadow=0;dashed=0;align=center;verticalAlign=middle;shape=mxgraph.arrows2.arrow;dy=0.49;dx=13.17;direction=south;notch=0;rotation=-180;fillColor=#7CAB62;strokeColor=#7CAB62;" parent="1" vertex="1">
          <mxGeometry x="-1312" y="118" width="29.7" height="29" as="geometry" />
        </mxCell>
        <mxCell id="_n7FMAc8PSbJCU8tSfX3-54" value="" style="html=1;shadow=0;dashed=0;align=center;verticalAlign=middle;shape=mxgraph.arrows2.arrow;dy=0.51;dx=17.01;direction=south;notch=0;rotation=-180;fillColor=#8DC26F;strokeColor=#8DC26F;" parent="1" vertex="1">
          <mxGeometry x="-1165" y="130" width="35" height="33" as="geometry" />
        </mxCell>
        <mxCell id="_n7FMAc8PSbJCU8tSfX3-55" value="" style="verticalLabelPosition=bottom;verticalAlign=top;html=1;shape=mxgraph.basic.half_circle;flipV=1;rotation=-180;fillColor=#8DC26F;strokeColor=#8DC26F;" parent="1" vertex="1">
          <mxGeometry x="-1170" y="163" width="31" height="15.5" as="geometry" />
        </mxCell>
        <mxCell id="_n7FMAc8PSbJCU8tSfX3-56" value="" style="html=1;shadow=0;dashed=0;align=center;verticalAlign=middle;shape=mxgraph.arrows2.arrow;dy=0.48;dx=59.93;direction=south;notch=0;strokeColor=#7CAB62;fillColor=#7CAB62;" parent="1" vertex="1">
          <mxGeometry x="-1336.6" y="405" width="120" height="120" as="geometry" />
        </mxCell>
        <mxCell id="_n7FMAc8PSbJCU8tSfX3-57" value="" style="verticalLabelPosition=bottom;verticalAlign=top;html=1;shape=mxgraph.basic.half_circle;flipV=1;fillColor=#648A4F;strokeColor=#648A4F;" parent="1" vertex="1">
          <mxGeometry x="-1577.6" y="410" width="241.3" height="128" as="geometry" />
        </mxCell>
        <mxCell id="_n7FMAc8PSbJCU8tSfX3-58" value="" style="html=1;shadow=0;dashed=0;align=center;verticalAlign=middle;shape=mxgraph.arrows2.arrow;dy=0.44;dx=115.12;direction=south;notch=0;fillColor=#648A4F;strokeColor=#648A4F;" parent="1" vertex="1">
          <mxGeometry x="-1503.6" y="537" width="214.5" height="206" as="geometry" />
        </mxCell>
        <mxCell id="_n7FMAc8PSbJCU8tSfX3-59" value="" style="html=1;shadow=0;dashed=0;align=center;verticalAlign=middle;shape=mxgraph.arrows2.arrow;dy=0.49;dx=43.54;direction=south;notch=0;fillColor=#8DC26F;strokeColor=#8DC26F;" parent="1" vertex="1">
          <mxGeometry x="-1177.6" y="341" width="82" height="86" as="geometry" />
        </mxCell>
        <mxCell id="_n7FMAc8PSbJCU8tSfX3-60" value="" style="verticalLabelPosition=bottom;verticalAlign=top;html=1;shape=mxgraph.basic.half_circle;flipV=1;rotation=-180;fillColor=#990001;strokeColor=#990001;" parent="1" vertex="1">
          <mxGeometry x="-1025" y="180" width="38" height="21" as="geometry" />
        </mxCell>
        <mxCell id="_n7FMAc8PSbJCU8tSfX3-61" value="" style="html=1;shadow=0;dashed=0;align=center;verticalAlign=middle;shape=mxgraph.arrows2.arrow;dy=0.47;dx=17.52;direction=south;notch=0;rotation=-180;fillColor=#990001;strokeColor=#990001;" parent="1" vertex="1">
          <mxGeometry x="-1014.4" y="141" width="36" height="39" as="geometry" />
        </mxCell>
        <mxCell id="_n7FMAc8PSbJCU8tSfX3-62" value="" style="verticalLabelPosition=bottom;verticalAlign=top;html=1;shape=mxgraph.basic.half_circle;flipV=1;fillColor=#bf0101;strokeColor=#bf0101;" parent="1" vertex="1">
          <mxGeometry x="-352.6" y="299" width="82" height="43" as="geometry" />
        </mxCell>
        <mxCell id="_n7FMAc8PSbJCU8tSfX3-63" value="" style="verticalLabelPosition=bottom;verticalAlign=top;html=1;shape=mxgraph.basic.half_circle;flipV=1;strokeColor=#990001;fillColor=#990001;" parent="1" vertex="1">
          <mxGeometry x="-522.6" y="343" width="122" height="70" as="geometry" />
        </mxCell>
        <mxCell id="_n7FMAc8PSbJCU8tSfX3-64" value="" style="verticalLabelPosition=bottom;verticalAlign=top;html=1;shape=mxgraph.basic.half_circle;flipV=1;rotation=-180;fillColor=#990001;strokeColor=#990001;" parent="1" vertex="1">
          <mxGeometry x="-475" y="146.5" width="30" height="14.2" as="geometry" />
        </mxCell>
        <mxCell id="_n7FMAc8PSbJCU8tSfX3-65" value="" style="group" parent="1" vertex="1" connectable="0">
          <mxGeometry x="-191.60000000000002" y="279" width="50" height="70" as="geometry" />
        </mxCell>
        <mxCell id="_n7FMAc8PSbJCU8tSfX3-66" value="" style="html=1;shadow=0;dashed=0;align=center;verticalAlign=middle;shape=mxgraph.arrows2.arrow;dy=0.53;dx=21.54;direction=south;notch=0;fillColor=#d90000;strokeColor=none;" parent="_n7FMAc8PSbJCU8tSfX3-65" vertex="1">
          <mxGeometry x="18.8" y="19" width="38.5" height="39.65" as="geometry" />
        </mxCell>
        <mxCell id="_n7FMAc8PSbJCU8tSfX3-67" value="" style="verticalLabelPosition=bottom;verticalAlign=top;html=1;shape=mxgraph.basic.half_circle;flipV=1;fillColor=#d90000;strokeColor=none;" parent="_n7FMAc8PSbJCU8tSfX3-65" vertex="1">
          <mxGeometry x="10" y="2" width="37" height="18" as="geometry" />
        </mxCell>
        <mxCell id="_n7FMAc8PSbJCU8tSfX3-68" value="" style="html=1;shadow=0;dashed=0;align=center;verticalAlign=middle;shape=mxgraph.arrows2.arrow;dy=0.49;dx=13.17;direction=south;notch=0;rotation=-180;fillColor=#990001;strokeColor=#990001;" parent="1" vertex="1">
          <mxGeometry x="-467" y="117" width="29.1" height="29" as="geometry" />
        </mxCell>
        <mxCell id="_n7FMAc8PSbJCU8tSfX3-69" value="" style="html=1;shadow=0;dashed=0;align=center;verticalAlign=middle;shape=mxgraph.arrows2.arrow;dy=0.51;dx=17.01;direction=south;notch=0;rotation=-180;fillColor=#bf0101;strokeColor=#bf0101;" parent="1" vertex="1">
          <mxGeometry x="-320.3" y="129" width="34" height="32" as="geometry" />
        </mxCell>
        <mxCell id="_n7FMAc8PSbJCU8tSfX3-70" value="" style="verticalLabelPosition=bottom;verticalAlign=top;html=1;shape=mxgraph.basic.half_circle;flipV=1;rotation=-180;fillColor=#bf0101;strokeColor=#bf0101;" parent="1" vertex="1">
          <mxGeometry x="-329" y="161.65" width="34" height="16" as="geometry" />
        </mxCell>
        <mxCell id="_n7FMAc8PSbJCU8tSfX3-71" value="" style="html=1;shadow=0;dashed=0;align=center;verticalAlign=middle;shape=mxgraph.arrows2.arrow;dy=0.48;dx=59.93;direction=south;notch=0;strokeColor=#990001;fillColor=#990001;" parent="1" vertex="1">
          <mxGeometry x="-491.6" y="412" width="120" height="120" as="geometry" />
        </mxCell>
        <mxCell id="_n7FMAc8PSbJCU8tSfX3-72" value="" style="verticalLabelPosition=bottom;verticalAlign=top;html=1;shape=mxgraph.basic.half_circle;flipV=1;fillColor=#648A4F;strokeColor=#648A4F;" parent="1" vertex="1">
          <mxGeometry x="-732.6" y="414" width="241.3" height="125" as="geometry" />
        </mxCell>
        <mxCell id="_n7FMAc8PSbJCU8tSfX3-73" value="" style="html=1;shadow=0;dashed=0;align=center;verticalAlign=middle;shape=mxgraph.arrows2.arrow;dy=0.44;dx=115.12;direction=south;notch=0;fillColor=#648A4F;strokeColor=#648A4F;" parent="1" vertex="1">
          <mxGeometry x="-658.6" y="537" width="214.5" height="206" as="geometry" />
        </mxCell>
        <mxCell id="_n7FMAc8PSbJCU8tSfX3-74" value="" style="html=1;shadow=0;dashed=0;align=center;verticalAlign=middle;shape=mxgraph.arrows2.arrow;dy=0.49;dx=43.54;direction=south;notch=0;fillColor=#bf0101;strokeColor=#bf0101;" parent="1" vertex="1">
          <mxGeometry x="-332.6" y="341" width="82" height="86" as="geometry" />
        </mxCell>
        <mxCell id="_n7FMAc8PSbJCU8tSfX3-75" value="" style="verticalLabelPosition=bottom;verticalAlign=top;html=1;shape=mxgraph.basic.half_circle;flipV=1;rotation=-180;fillColor=#d90000;strokeColor=#d90000;" parent="1" vertex="1">
          <mxGeometry x="-186" y="179" width="47" height="22.75" as="geometry" />
        </mxCell>
        <mxCell id="_n7FMAc8PSbJCU8tSfX3-76" value="" style="html=1;shadow=0;dashed=0;align=center;verticalAlign=middle;shape=mxgraph.arrows2.arrow;dy=0.45;dx=21.69;direction=south;notch=0;rotation=-180;fillColor=#d90000;strokeColor=#d90000;" parent="1" vertex="1">
          <mxGeometry x="-174" y="136" width="45" height="43" as="geometry" />
        </mxCell>
        <mxCell id="_n7FMAc8PSbJCU8tSfX3-79" value="" style="verticalLabelPosition=bottom;verticalAlign=top;html=1;shape=mxgraph.basic.half_circle;flipV=1;strokeColor=#bf0101;fillColor=#bf0101;" parent="1" vertex="1">
          <mxGeometry x="329" y="336" width="122" height="64" as="geometry" />
        </mxCell>
        <mxCell id="_n7FMAc8PSbJCU8tSfX3-80" value="" style="html=1;shadow=0;dashed=0;align=center;verticalAlign=middle;shape=mxgraph.arrows2.arrow;dy=0.48;dx=59.93;direction=south;notch=0;strokeColor=#bf0101;fillColor=#bf0101;" parent="1" vertex="1">
          <mxGeometry x="360" y="400" width="120" height="120" as="geometry" />
        </mxCell>
        <mxCell id="_n7FMAc8PSbJCU8tSfX3-81" value="" style="verticalLabelPosition=bottom;verticalAlign=top;html=1;shape=mxgraph.basic.half_circle;flipV=1;fillColor=#990001;strokeColor=#990001;" parent="1" vertex="1">
          <mxGeometry x="119" y="401" width="241.3" height="138" as="geometry" />
        </mxCell>
        <mxCell id="_n7FMAc8PSbJCU8tSfX3-82" value="" style="html=1;shadow=0;dashed=0;align=center;verticalAlign=middle;shape=mxgraph.arrows2.arrow;dy=0.44;dx=115.12;direction=south;notch=0;fillColor=#990001;strokeColor=#990001;" parent="1" vertex="1">
          <mxGeometry x="193" y="528" width="214.5" height="206" as="geometry" />
        </mxCell>
        <mxCell id="_n7FMAc8PSbJCU8tSfX3-84" value="" style="verticalLabelPosition=bottom;verticalAlign=top;html=1;shape=mxgraph.basic.half_circle;flipV=1;rotation=-180;fillColor=#bf0101;strokeColor=#bf0101;" parent="1" vertex="1">
          <mxGeometry x="376" y="146.5" width="27" height="13.5" as="geometry" />
        </mxCell>
        <mxCell id="_n7FMAc8PSbJCU8tSfX3-85" value="" style="html=1;shadow=0;dashed=0;align=center;verticalAlign=middle;shape=mxgraph.arrows2.arrow;dy=0.49;dx=13.17;direction=south;notch=0;rotation=-180;fillColor=#bf0101;strokeColor=#bf0101;" parent="1" vertex="1">
          <mxGeometry x="381" y="117" width="29.1" height="29" as="geometry" />
        </mxCell>
        <mxCell id="_n7FMAc8PSbJCU8tSfX3-87" value="" style="shape=singleArrow;direction=south;whiteSpace=wrap;html=1;arrowWidth=0.5652358691032497;arrowSize=0.3602209944751394;rotation=-180;fillColor=#648A4F;strokeColor=#648A4F;" parent="1" vertex="1">
          <mxGeometry x="238.79999999999995" y="-937.8" width="7.65" height="11" as="geometry" />
        </mxCell>
        <mxCell id="_n7FMAc8PSbJCU8tSfX3-88" value="" style="verticalLabelPosition=bottom;verticalAlign=top;html=1;shape=mxgraph.basic.half_circle;flipV=1;rotation=-180;fillColor=#648A4F;strokeColor=#648A4F;" parent="1" vertex="1">
          <mxGeometry x="235.79999999999995" y="-926.3" width="9" height="4.3" as="geometry" />
        </mxCell>
        <mxCell id="_n7FMAc8PSbJCU8tSfX3-89" value="" style="shape=singleArrow;direction=south;whiteSpace=wrap;html=1;arrowWidth=0.5652358691032497;arrowSize=0.3602209944751394;rotation=-180;fillColor=#648A4F;strokeColor=#648A4F;" parent="1" vertex="1">
          <mxGeometry x="-1456.2" y="129" width="7.65" height="11" as="geometry" />
        </mxCell>
        <mxCell id="_n7FMAc8PSbJCU8tSfX3-90" value="" style="verticalLabelPosition=bottom;verticalAlign=top;html=1;shape=mxgraph.basic.half_circle;flipV=1;rotation=-180;fillColor=#648A4F;strokeColor=#648A4F;" parent="1" vertex="1">
          <mxGeometry x="-1459.2" y="140.5" width="9" height="5.2" as="geometry" />
        </mxCell>
        <mxCell id="_n7FMAc8PSbJCU8tSfX3-91" value="" style="shape=singleArrow;direction=south;whiteSpace=wrap;html=1;arrowWidth=0.5652358691032497;arrowSize=0.3602209944751394;rotation=-180;fillColor=#648A4F;strokeColor=#648A4F;" parent="1" vertex="1">
          <mxGeometry x="-611.2" y="129" width="7.65" height="11" as="geometry" />
        </mxCell>
        <mxCell id="_n7FMAc8PSbJCU8tSfX3-92" value="" style="verticalLabelPosition=bottom;verticalAlign=top;html=1;shape=mxgraph.basic.half_circle;flipV=1;rotation=-180;fillColor=#648A4F;strokeColor=#648A4F;" parent="1" vertex="1">
          <mxGeometry x="-614.2" y="140.5" width="9" height="5.2" as="geometry" />
        </mxCell>
        <mxCell id="_n7FMAc8PSbJCU8tSfX3-93" value="" style="shape=singleArrow;direction=south;whiteSpace=wrap;html=1;arrowWidth=0.5652358691032497;arrowSize=0.3602209944751394;rotation=-180;fillColor=#990001;strokeColor=#990001;" parent="1" vertex="1">
          <mxGeometry x="238" y="129" width="7.65" height="11" as="geometry" />
        </mxCell>
        <mxCell id="_n7FMAc8PSbJCU8tSfX3-94" value="" style="verticalLabelPosition=bottom;verticalAlign=top;html=1;shape=mxgraph.basic.half_circle;flipV=1;rotation=-180;fillColor=#990001;strokeColor=#990001;" parent="1" vertex="1">
          <mxGeometry x="235" y="140.5" width="9" height="5.2" as="geometry" />
        </mxCell>
      </root>
    </mxGraphModel>
  </diagram>
  <diagram id="CHflGyfiij0r2jJOW-ct" name="Page-2">
    <mxGraphModel dx="954" dy="616" grid="1" gridSize="10" guides="1" tooltips="1" connect="1" arrows="1" fold="1" page="1" pageScale="1" pageWidth="850" pageHeight="1100" math="0" shadow="0">
      <root>
        <mxCell id="0" />
        <mxCell id="1" parent="0" />
      </root>
    </mxGraphModel>
  </diagram>
</mxfile>
